<?xml version="1.0" encoding="utf-8"?>
<!-- Generator: Adobe Illustrator 22.1.0, SVG Export Plug-In . SVG Version: 6.00 Build 0)  -->
<svg version="1.1" id="Capa_1" xmlns="http://www.w3.org/2000/svg" xmlns:xlink="http://www.w3.org/1999/xlink" x="0px" y="0px"
	 width="30px" height="23px" viewBox="0 0 30 23" enable-background="new 0 0 30 23" xml:space="preserve">
<path fill="#19a132" d="M29.5,3.2l-2.6-2.6C26.5,0.2,26,0,25.5,0c-0.5,0-1,0.2-1.3,0.5L11.5,13.3L5.8,7.5C5.4,7.2,5,7,4.5,7C4,7,3.5,7.2,3.2,7.5
	l-2.6,2.6C0.2,10.5,0,11,0,11.5c0,0.5,0.2,1,0.5,1.3l7,7l2.6,2.6c0.4,0.4,0.8,0.5,1.3,0.5c0.5,0,1-0.2,1.3-0.5l2.6-2.6l14-14
	C29.8,5.4,30,5,30,4.5C30,4,29.8,3.5,29.5,3.2z"/>
</svg>
