<svg xmlns="http://www.w3.org/2000/svg" xmlns:xlink="http://www.w3.org/1999/xlink"><symbol viewBox="0 0 7 12" id="ico-chevron" xmlns="http://www.w3.org/2000/svg"><path d="M1.593 11.39l4.804-5.137a.36.36 0 000-.506L1.593.61A.316.316 0 001.356.5a.316.316 0 00-.238.11l-.515.551a.36.36 0 000 .507L4.655 6 .603 10.332a.361.361 0 000 .507l.515.551c.07.074.148.11.237.11.09 0 .169-.036.238-.11z"/></symbol><symbol viewBox="0 0 15 15" id="ico-circle-arrow" xmlns="http://www.w3.org/2000/svg"><path d="M13.98 3.731a7.46 7.46 0 00-2.727-2.726A7.328 7.328 0 007.493 0c-1.36 0-2.614.335-3.761 1.005A7.459 7.459 0 001.005 3.73 7.328 7.328 0 000 7.492a7.33 7.33 0 001.005 3.76A7.46 7.46 0 003.73 13.98a7.33 7.33 0 003.761 1.005 7.33 7.33 0 003.76-1.005 7.459 7.459 0 002.727-2.726 7.33 7.33 0 001.005-3.761 7.33 7.33 0 00-1.005-3.76zm-1.62 4.2l-.888.888-3.531 3.53a.596.596 0 01-.44.177.596.596 0 01-.438-.176l-.888-.888a.6.6 0 01-.185-.439.6.6 0 01.185-.439L8.02 8.741H3.122a.6.6 0 01-.44-.186.6.6 0 01-.185-.439V6.868a.6.6 0 01.186-.44.6.6 0 01.439-.185h4.897L6.175 4.4A.595.595 0 016 3.96c0-.175.058-.321.175-.439l.888-.887a.596.596 0 01.439-.176c.176 0 .322.059.439.176l3.531 3.531.888.888a.595.595 0 01.176.439.595.595 0 01-.176.439z"/></symbol><symbol viewBox="0 0 20 20" id="ico-circle-chevron" xmlns="http://www.w3.org/2000/svg"><path d="M18.66 4.98a9.958 9.958 0 00-3.64-3.639C13.488.447 11.815 0 10 0 8.186 0 6.513.447 4.98 1.341a9.955 9.955 0 00-3.639 3.64C.447 6.512 0 8.185 0 10s.447 3.487 1.341 5.02a9.958 9.958 0 003.64 3.639C6.513 19.553 8.186 20 10 20c1.813 0 3.487-.447 5.019-1.341a9.955 9.955 0 003.639-3.64C19.553 13.488 20 11.815 20 10s-.447-3.488-1.34-5.02zm-2.163 4.356l-5.91 5.911a.801.801 0 01-.587.248.801.801 0 01-.586-.248L3.503 9.336a.8.8 0 01-.248-.586c0-.226.083-.421.248-.586L4.83 6.836a.801.801 0 01.586-.248.8.8 0 01.586.248L10 10.833l3.998-3.997a.8.8 0 01.586-.248.8.8 0 01.585.248l1.329 1.328a.8.8 0 01.247.586.8.8 0 01-.248.586z" fill="#FFF" fill-rule="nonzero"/></symbol><symbol viewBox="0 0 511.6 402" id="ico-comment-bubbles" xmlns="http://www.w3.org/2000/svg"><path d="M301.9 272.8c30.9-13 55.3-30.8 73.2-53.2 17.9-22.5 26.8-46.9 26.8-73.4 0-26.5-8.9-50.9-26.8-73.4-17.9-22.5-42.3-40.2-73.2-53.2C271 6.5 237.4 0 201 0c-36.4 0-70 6.5-100.9 19.6-30.9 13-55.3 30.8-73.2 53.2C8.9 95.3 0 119.7 0 146.2c0 22.6 6.8 44 20.3 64S52.4 247 76 260.7c-1.9 4.6-3.9 8.8-5.9 12.6-2 3.8-4.4 7.5-7.1 11-2.8 3.5-4.9 6.3-6.4 8.3-1.5 2-4 4.8-7.4 8.4-3.4 3.6-5.6 6-6.6 7.1 0-.2-.4.2-1.1 1.3-.8 1-1.2 1.5-1.3 1.4-.1-.1-.5.4-1.1 1.4-.7 1-1 1.6-1 1.6l-.7 1.4c-.3.6-.5 1.1-.6 1.7-.1.6-.1 1.2-.1 1.9s.1 1.3.3 1.9c.4 2.5 1.5 4.5 3.3 6 1.8 1.5 3.8 2.3 5.9 2.3h.9c9.5-1.3 17.7-2.9 24.6-4.6 29.3-7.6 55.8-19.8 79.4-36.5 17.1 3 33.9 4.6 50.2 4.6 36.1-.1 69.7-6.7 100.6-19.7z"/><path d="M491.4 283.4c13.5-19.9 20.3-41.2 20.3-64.1 0-23.4-7.1-45.3-21.4-65.7-14.3-20.4-33.7-37.3-58.2-50.8 4.4 14.3 6.6 28.7 6.6 43.4 0 25.5-6.4 49.7-19.1 72.5-12.8 22.8-31 43-54.8 60.5-22.1 16-47.2 28.3-75.4 36.8-28.2 8.6-57.6 12.8-88.2 12.8-5.7 0-14.1-.4-25.1-1.1 38.3 25.1 83.2 37.7 134.8 37.7 16.4 0 33.1-1.5 50.3-4.6 23.6 16.8 50.1 28.9 79.4 36.5 6.9 1.7 15 3.2 24.6 4.6 2.3.2 4.4-.5 6.3-2 1.9-1.5 3.1-3.6 3.7-6.3-.1-1.1 0-1.8.3-1.9.3-.1.2-.7-.1-1.9-.4-1.1-.6-1.7-.6-1.7l-.7-1.4c-.2-.4-.5-.9-1-1.6-.5-.7-.9-1.1-1.1-1.4-.3-.3-.7-.8-1.3-1.4-.6-.7-1-1.1-1.1-1.3-1-1.1-3.1-3.5-6.6-7.1-3.4-3.6-5.9-6.4-7.4-8.4s-3.7-4.8-6.4-8.3c-2.8-3.5-5.1-7.2-7.1-11s-3.9-8-5.9-12.6c23.1-13.5 41.6-30.3 55.2-50.2z"/></symbol><symbol viewBox="0 0 36 35" id="ico-github" xmlns="http://www.w3.org/2000/svg"><path d="M17.999 0C8.059 0 0 8.033 0 17.945c0 7.926 5.157 14.65 12.31 17.024.901.164 1.23-.39 1.23-.865 0-.426-.016-1.555-.025-3.052-5.007 1.084-6.063-2.405-6.063-2.405-.819-2.073-1.999-2.624-1.999-2.624-1.634-1.114.124-1.092.124-1.092 1.806.128 2.757 1.85 2.757 1.85 1.605 2.741 4.212 1.95 5.238 1.491.164-1.16.628-1.95 1.143-2.399-3.997-.453-8.199-1.992-8.199-8.868 0-1.959.702-3.56 1.853-4.815-.186-.454-.803-2.278.176-4.748 0 0 1.511-.483 4.95 1.84a17.291 17.291 0 014.506-.605c1.528.007 3.069.205 4.506.604 3.437-2.322 4.945-1.84 4.945-1.84.982 2.471.365 4.295.179 4.75 1.154 1.254 1.85 2.855 1.85 4.814 0 6.893-4.208 8.41-8.218 8.854.646.554 1.222 1.649 1.222 3.323 0 2.398-.022 4.333-.022 4.922 0 .48.324 1.038 1.238.863C30.846 32.59 36 25.87 36 17.945 36 8.033 27.94 0 17.999 0"/></symbol><symbol viewBox="0 0 19 19" id="ico-grid-world" xmlns="http://www.w3.org/2000/svg"><path d="M18.977 8.867A9.497 9.497 0 0010.133.022V0H8.867v.022A9.499 9.499 0 00.022 8.867H0v1.266h.022a9.497 9.497 0 008.845 8.844V19h1.266v-.023a9.496 9.496 0 008.844-8.844H19V8.867h-.023zM5.947 2.07c-.612.813-1.12 1.833-1.49 2.996H2.56A8.277 8.277 0 015.947 2.07zm-4.05 4.262h2.227c-.17.8-.277 1.65-.311 2.534H1.29a8.162 8.162 0 01.606-2.534zm-.606 3.8h2.522c.034.883.142 1.733.311 2.534H1.897a8.162 8.162 0 01-.606-2.534zm1.269 3.8h1.896c.37 1.163.878 2.183 1.491 2.996a8.268 8.268 0 01-3.387-2.996zm6.307 3.72c-1.302-.35-2.423-1.747-3.104-3.72h3.104v3.72zm0-4.986h-3.46a14.157 14.157 0 01-.328-2.534h3.788v2.534zm0-3.8H5.079c.037-.892.15-1.745.328-2.534h3.46v2.534zm0-3.8H5.763c.68-1.973 1.802-3.37 3.104-3.718v3.718zm7.573 0h-1.895c-.371-1.163-.878-2.183-1.492-2.996a8.285 8.285 0 013.387 2.996zm-6.307-3.718c1.301.347 2.423 1.745 3.104 3.718h-3.104V1.349zm0 4.984h3.458c.18.79.29 1.642.33 2.534h-3.788V6.333zm0 3.8h3.788a14.04 14.04 0 01-.33 2.534h-3.458v-2.534zm0 7.52v-3.72h3.104c-.68 1.973-1.803 3.37-3.104 3.72zm2.92-.724c.612-.814 1.121-1.833 1.492-2.996h1.895a8.273 8.273 0 01-3.387 2.996zm4.05-4.262h-2.227c.17-.8.277-1.65.311-2.534h2.521a8.125 8.125 0 01-.605 2.534zm-1.916-3.8a15.043 15.043 0 00-.311-2.534h2.227c.329.79.54 1.642.606 2.534h-2.522z"/></symbol><symbol viewBox="0 0 29 29" id="ico-instagram" xmlns="http://www.w3.org/2000/svg"><defs><path id="ga" d="M0 .01h28.99V29H0z"/></defs><mask id="gb"><use xlink:href="#ga"/></mask><path d="M14.495.01c-3.936 0-4.43.016-5.976.086C6.976.166 5.922.412 5 .77a7.105 7.105 0 00-2.567 1.672A7.106 7.106 0 00.76 5.009C.403 5.932.158 6.985.087 8.53.017 10.073 0 10.567 0 14.504c0 3.936.017 4.43.087 5.976.07 1.543.316 2.597.674 3.519a7.1 7.1 0 001.672 2.567A7.106 7.106 0 005 28.24c.922.358 1.976.603 3.519.674 1.546.07 2.04.087 5.976.087 3.937 0 4.43-.017 5.977-.087 1.543-.07 2.596-.316 3.519-.674a7.105 7.105 0 002.567-1.672A7.105 7.105 0 0028.23 24c.358-.922.603-1.976.674-3.519.07-1.546.087-2.04.087-5.976 0-3.937-.017-4.43-.087-5.977-.07-1.543-.316-2.596-.674-3.519a7.106 7.106 0 00-1.672-2.567A7.104 7.104 0 0023.99.77c-.923-.358-1.976-.603-3.52-.674C18.927.026 18.433.01 14.496.01m0 2.612c3.87 0 4.33.015 5.858.084 1.413.065 2.18.301 2.691.5a4.49 4.49 0 011.667 1.084c.507.507.821.99 1.084 1.667.199.51.435 1.278.5 2.691.07 1.529.084 1.987.084 5.858 0 3.87-.015 4.328-.084 5.857-.065 1.413-.301 2.18-.5 2.692a4.492 4.492 0 01-1.084 1.666 4.49 4.49 0 01-1.667 1.085c-.51.198-1.278.434-2.691.499-1.528.07-1.987.084-5.858.084-3.87 0-4.329-.015-5.857-.084-1.413-.065-2.18-.3-2.692-.5A4.491 4.491 0 014.28 24.72a4.492 4.492 0 01-1.085-1.666c-.198-.511-.434-1.279-.499-2.692-.07-1.529-.084-1.987-.084-5.857s.015-4.33.084-5.858c.065-1.413.3-2.18.5-2.691A4.491 4.491 0 014.28 4.289c.507-.507.99-.821 1.666-1.084.511-.199 1.279-.435 2.692-.5 1.529-.07 1.987-.084 5.857-.084" mask="url(#gb)"/><path d="M14.5 19.368a4.868 4.868 0 110-9.737 4.868 4.868 0 010 9.737M14.5 7a7.5 7.5 0 100 15 7.5 7.5 0 000-15m9.5-.5a1.5 1.5 0 11-3 0 1.5 1.5 0 013 0"/></symbol><symbol viewBox="0 0 29 29" id="ico-linkedin" xmlns="http://www.w3.org/2000/svg"><path d="M2.14 0h24.72A2.14 2.14 0 0129 2.14v24.72A2.14 2.14 0 0126.86 29H2.14A2.14 2.14 0 010 26.86V2.14A2.14 2.14 0 012.14 0zM25 25v-8.422C25 12.418 22.264 11 19.733 11c-2.34 0-3.873 1.431-4.312 2.27h-.058v-1.887H11V25h4.537v-7.383c0-1.968 1.32-2.925 2.666-2.925 1.273 0 2.26.676 2.26 2.87V25H25zM6.5 9C7.88 9 9 7.945 9 6.5 9 5.057 7.88 4 6.5 4S4 5.056 4 6.5C4 7.946 5.12 9 6.5 9zM5 25h4V11H5v14z"/></symbol><symbol viewBox="0 0 34 29" id="ico-twitter" xmlns="http://www.w3.org/2000/svg"><path d="M10.692 29C23.522 29 30.54 17.842 30.54 8.166c0-.317 0-.633-.02-.947A14.605 14.605 0 0034 3.43c-1.273.592-2.624.98-4.007 1.152 1.457-.915 2.547-2.354 3.067-4.05a13.585 13.585 0 01-4.43 1.777C26.469-.105 23.034-.696 20.25.868c-2.783 1.563-4.22 4.891-3.507 8.119C11.134 8.69 5.908 5.91 2.366 1.337c-1.851 3.345-.905 7.625 2.16 9.774a6.675 6.675 0 01-3.166-.917v.093c0 3.486 2.342 6.488 5.596 7.178a6.645 6.645 0 01-3.15.126c.914 2.983 3.533 5.026 6.518 5.085-2.47 2.038-5.522 3.144-8.663 3.14A13.536 13.536 0 010 25.711C3.19 27.86 6.902 29 10.692 28.994"/></symbol><symbol viewBox="0 0 35 24" id="ico-youtube" xmlns="http://www.w3.org/2000/svg"><path d="M14 17V7l9 5-9 5zM34.269 3.748C33.866 2.273 32.68 1.11 31.174.717 28.444 0 17.5 0 17.5 0S6.555 0 3.826.717C2.32 1.11 1.134 2.273.73 3.747 0 6.422 0 12 0 12s0 5.579.731 8.252c.403 1.475 1.589 2.637 3.095 3.031C6.556 24 17.5 24 17.5 24s10.945 0 13.674-.717c1.506-.394 2.692-1.556 3.095-3.03C35 17.578 35 12 35 12s0-5.579-.731-8.252z"/></symbol><symbol viewBox="0 0 172 135" fill-rule="evenodd" clip-rule="evenodd" stroke-linejoin="round" stroke-miterlimit="2" id="logo" xmlns="http://www.w3.org/2000/svg"><path d="M85.998 23.171c6.681 0 12.106 5.424 12.106 12.105s-5.425 12.105-12.106 12.105-12.105-5.424-12.105-12.105 5.424-12.105 12.105-12.105zm-6.701 11.246a6.757 6.757 0 016.701-5.904c1.357 0 2.621.402 3.677 1.094a7.604 7.604 0 01-7.296 5.465 7.508 7.508 0 01-3.082-.655z"/><path d="M52.797 23.332C57.616 9.971 70.29.294 85.327.006c15.513-.294 28.889 9.489 33.873 23.326 4.704-7.5 12.181-16.33 19.875-21.54 0 0 47.444 43.553 28.427 117.814 0 0-17.59-8.235-28.438-26.925 0 0-4.662 15.498-53.03 43.261v-.082l-.034-.02-.037.02v.082c-48.365-27.763-53.03-43.261-53.03-43.261-10.848 18.69-28.435 26.925-28.435 26.925C-14.521 45.345 32.922 1.792 32.922 1.792c7.693 5.21 15.17 14.04 19.875 21.54zm32.644-17.39c16.191-.308 29.587 12.589 29.895 28.78.307 16.19-12.587 29.586-28.778 29.894-16.194.308-29.59-12.586-29.897-28.777-.308-16.194 12.59-29.59 28.78-29.898v.001z"/></symbol></svg>