<?xml version="1.0" standalone="no"?>
<!DOCTYPE svg PUBLIC "-//W3C//DTD SVG 20010904//EN"
 "http://www.w3.org/TR/2001/REC-SVG-20010904/DTD/svg10.dtd">
<svg version="1.0" xmlns="http://www.w3.org/2000/svg"
 width="1210.000000pt" height="1210.000000pt" viewBox="0 0 1210.000000 1210.000000"
 preserveAspectRatio="xMidYMid meet">
<metadata>
Created by potrace 1.14, written by Peter Selinger 2001-2017
</metadata>
<g transform="translate(0.000000,1210.000000) scale(0.100000,-0.100000)"
fill="#000000" stroke="none">
<path d="M5731 10794 c-724 -98 -1341 -483 -1746 -1089 -84 -126 -179 -303
-225 -420 -18 -44 -36 -84 -40 -89 -5 -4 -45 47 -91 115 -355 532 -837 1048
-1247 1336 l-60 42 -124 -127 c-458 -473 -955 -1200 -1299 -1902 -912 -1857
-1124 -3930 -618 -6050 22 -91 41 -171 44 -178 3 -9 27 0 82 30 737 402 1440
1062 1845 1734 35 57 66 103 69 104 3 0 16 -23 30 -52 35 -76 114 -199 200
-313 523 -689 1617 -1546 3106 -2433 268 -160 378 -222 392 -222 14 0 146 76
426 243 1105 663 1929 1259 2560 1853 309 291 587 630 699 852 20 39 38 72 40
72 3 0 21 -28 42 -63 302 -501 769 -1011 1277 -1390 254 -191 652 -435 673
-415 9 10 69 256 108 445 137 668 194 1174 203 1828 10 697 -35 1209 -163
1855 -239 1202 -764 2392 -1490 3370 -192 259 -361 461 -545 653 l-104 108
-61 -43 c-410 -291 -880 -792 -1239 -1323 -48 -72 -91 -131 -95 -133 -4 -1
-17 24 -29 57 -34 92 -134 290 -201 398 -238 377 -571 685 -960 887 -280 145
-564 231 -872 265 -134 15 -461 12 -587 -5z m620 -419 c655 -98 1219 -502
1527 -1095 102 -196 175 -424 208 -648 22 -148 22 -434 0 -585 -116 -808 -705
-1476 -1492 -1692 -206 -57 -312 -70 -554 -70 -228 1 -306 10 -501 60 -360 92
-680 275 -945 539 -440 441 -656 1047 -594 1667 16 153 45 287 96 439 208 620
686 1096 1311 1306 120 40 308 79 443 93 123 13 369 6 501 -14z"/>
<path d="M5912 9179 c-327 -58 -589 -294 -683 -614 -30 -102 -36 -277 -15
-384 55 -269 216 -480 460 -603 127 -64 207 -81 376 -81 129 0 155 3 235 27
334 101 561 373 606 724 33 257 -69 525 -272 716 -66 62 -103 87 -193 131 -61
30 -140 61 -176 70 -80 19 -267 27 -338 14z m312 -400 c84 -34 87 -43 43 -133
-66 -133 -203 -242 -347 -277 -79 -18 -213 -15 -280 8 -55 18 -55 18 -53 57 2
21 14 64 28 94 58 127 153 214 283 259 91 32 237 28 326 -8z"/>
</g>
</svg>
