<?xml version="1.0" standalone="no"?>
<!DOCTYPE svg PUBLIC "-//W3C//DTD SVG 20010904//EN"
 "http://www.w3.org/TR/2001/REC-SVG-20010904/DTD/svg10.dtd">
<svg version="1.0" xmlns="http://www.w3.org/2000/svg"
 width="260.000000pt" height="260.000000pt" viewBox="0 0 260.000000 260.000000"
 preserveAspectRatio="xMidYMid meet">
<metadata>
Created by potrace 1.11, written by Peter Selinger 2001-2013
</metadata>
<g transform="translate(0.000000,260.000000) scale(0.100000,-0.100000)"
fill="#000000" stroke="none">
<path d="M1215 2584 c-46 -14 -94 -60 -608 -572 -368 -368 -564 -571 -577
-597 -30 -62 -35 -123 -15 -191 16 -59 20 -62 573 -617 368 -368 571 -564 597
-577 62 -30 123 -35 191 -15 59 16 62 20 617 573 368 368 564 571 577 597 30
62 35 123 15 191 -16 59 -20 62 -573 617 -382 382 -570 564 -599 578 -57 27
-136 33 -198 13z m274 -308 l184 -184 29 -178 c16 -98 30 -179 31 -181 2 -1
83 -15 181 -31 l178 -29 186 -186 187 -187 -583 -582 -582 -583 -187 187 -188
188 74 74 73 74 -58 10 c-33 5 -112 18 -176 28 -112 16 -117 18 -122 43 -3 14
-15 85 -26 156 -12 72 -23 141 -26 154 -5 23 -10 20 -80 -50 l-74 -74 -188
188 -187 187 580 580 c319 319 582 580 585 580 3 0 88 -83 189 -184z"/>
<path d="M1168 1701 c-78 -25 -117 -52 -181 -121 -79 -85 -101 -146 -101 -280
0 -145 22 -200 118 -296 96 -96 151 -118 296 -118 86 0 115 4 163 23 58 23
166 112 189 155 10 20 10 20 -9 4 -55 -49 -194 -63 -273 -27 -55 25 -114 80
-143 134 -17 32 -22 57 -22 125 0 68 5 93 22 125 29 54 88 109 143 134 79 36
218 22 273 -27 19 -16 19 -16 9 4 -23 44 -131 132 -189 155 -81 31 -217 36
-295 10z"/>
<path d="M1542 1367 c-48 -27 -70 -89 -49 -139 20 -46 49 -69 95 -75 110 -15
172 119 92 199 -23 22 -37 28 -72 28 -24 -1 -53 -6 -66 -13z"/>
</g>
</svg>
