<svg width="19" height="19" viewBox="0 0 19 19" xmlns="http://www.w3.org/2000/svg"><path d="M18.977 8.867A9.497 9.497 0 0 0 10.133.022V0H8.867v.022A9.499 9.499 0 0 0 .022 8.867H0v1.266h.022a9.497 9.497 0 0 0 8.845 8.844V19h1.266v-.023a9.496 9.496 0 0 0 8.844-8.844H19V8.867h-.023zM5.947 2.07c-.612.813-1.12 1.833-1.49 2.996H2.56A8.277 8.277 0 0 1 5.947 2.07zm-4.05 4.262h2.227c-.17.8-.277 1.65-.311 2.534H1.29a8.162 8.162 0 0 1 .606-2.534zm-.606 3.8h2.522c.034.883.142 1.733.311 2.534H1.897a8.162 8.162 0 0 1-.606-2.534zm1.269 3.8h1.896c.37 1.163.878 2.183 1.491 2.996a8.268 8.268 0 0 1-3.387-2.996zm6.307 3.72c-1.302-.35-2.423-1.747-3.104-3.72h3.104v3.72zm0-4.986h-3.46a14.157 14.157 0 0 1-.328-2.534h3.788v2.534zm0-3.8H5.079c.037-.892.15-1.745.328-2.534h3.46v2.534zm0-3.8H5.763c.68-1.973 1.802-3.37 3.104-3.718v3.718zm7.573 0h-1.895c-.371-1.163-.878-2.183-1.492-2.996a8.285 8.285 0 0 1 3.387 2.996zm-6.307-3.718c1.301.347 2.423 1.745 3.104 3.718h-3.104V1.349zm0 4.984h3.458c.18.79.29 1.642.33 2.534h-3.788V6.333zm0 3.8h3.788a14.04 14.04 0 0 1-.33 2.534h-3.458v-2.534zm0 7.52v-3.72h3.104c-.68 1.973-1.803 3.37-3.104 3.72zm2.92-.724c.612-.814 1.121-1.833 1.492-2.996h1.895c-.826 1.29-2 2.331-3.387 2.996zm4.05-4.262h-2.227c.17-.8.277-1.65.311-2.534h2.521a8.125 8.125 0 0 1-.605 2.534zm-1.916-3.8a15.043 15.043 0 0 0-.311-2.534h2.227c.329.79.54 1.642.606 2.534h-2.522z" /></svg>