<?xml version="1.0" encoding="UTF-8"?>
<svg width="20px" height="20px" viewBox="0 0 20 20" version="1.1" xmlns="http://www.w3.org/2000/svg" xmlns:xlink="http://www.w3.org/1999/xlink">
    <!-- Generator: Sketch 52.5 (67469) - http://www.bohemiancoding.com/sketch -->
    <title>Shape</title>
    <desc>Created with Sketch.</desc>
    <g id="Welcome" stroke="none" stroke-width="1" fill="none" fill-rule="evenodd">
        <g id="Home" transform="translate(-150.000000, -503.000000)" fill="#FFFFFF" fill-rule="nonzero">
            <g id="home__intro" transform="translate(0.000000, -1.000000)">
                <g id="home__mask">
                    <g id="ico-circular-chevron" transform="translate(150.000000, 504.000000)">
                        <path d="M18.6592085,4.9803664 C17.7649522,3.44835292 16.5519506,2.23535689 15.0198845,1.34115029 C13.4875448,0.446989287 11.814782,0 10.0003192,0 C8.18603888,0 6.51277444,0.446989287 4.98070836,1.34115029 C3.44855107,2.23522007 2.23554952,3.4482161 1.34129322,4.9803664 C0.446991326,6.51260792 0,8.18586472 0,10 C0,11.8142265 0.447128146,13.4872097 1.3411564,15.0195424 C2.23536709,16.5515559 3.44836865,17.7645519 4.98052594,18.6588497 C6.51277444,19.5529651 8.18590206,20 10.0001368,20 C11.8143716,20 13.4876816,19.5529651 15.0198389,18.6588497 C16.551905,17.7648711 17.7648609,16.5515559 18.659026,15.0195424 C19.5530543,13.4873465 20,11.8141353 20,10 C20.0000456,8.1856823 19.5530543,6.51237988 18.6592085,4.9803664 Z M16.4974506,9.33587818 L10.586183,15.2473468 C10.4213604,15.4121687 10.22589,15.4948989 10.0001824,15.4948989 C9.77452045,15.4948989 9.57927814,15.4122143 9.41427307,15.2473468 L3.50277745,9.33587818 C3.33781799,9.17101069 3.25531546,8.97567805 3.25531546,8.75006271 C3.25531546,8.52435615 3.33781799,8.3288867 3.50277745,8.1639736 L4.83079912,6.83586677 C4.995941,6.67086246 5.1910921,6.58840592 5.4168909,6.58840592 C5.64255288,6.58840592 5.8378864,6.67090807 6.00280025,6.83586677 L10.000228,10.8332763 L13.9976558,6.83586677 C14.1624785,6.67086246 14.3578576,6.58840592 14.5835652,6.58840592 C14.8092728,6.58840592 15.0046519,6.67090807 15.1694745,6.83586677 L16.4976786,8.1639736 C16.6628205,8.3288867 16.7452318,8.52435615 16.7452318,8.75006271 C16.7451406,8.97567805 16.6627293,9.17101069 16.4974506,9.33587818 Z" id="Shape"></path>
                    </g>
                </g>
            </g>
        </g>
    </g>
</svg>