<svg width="15" height="15" viewBox="0 0 15 15" xmlns="http://www.w3.org/2000/svg"><path d="M13.98 3.731a7.46 7.46 0 0 0-2.727-2.726A7.328 7.328 0 0 0 7.493 0c-1.36 0-2.614.335-3.761 1.005A7.459 7.459 0 0 0 1.005 3.73 7.328 7.328 0 0 0 0 7.492a7.33 7.33 0 0 0 1.005 3.76A7.46 7.46 0 0 0 3.73 13.98a7.33 7.33 0 0 0 3.761 1.005 7.33 7.33 0 0 0 3.76-1.005 7.459 7.459 0 0 0 2.727-2.726 7.33 7.33 0 0 0 1.005-3.761 7.33 7.33 0 0 0-1.005-3.76zm-1.62 4.2l-.888.888-3.531 3.53a.596.596 0 0 1-.44.177.596.596 0 0 1-.438-.176l-.888-.888a.6.6 0 0 1-.185-.439.6.6 0 0 1 .185-.439L8.02 8.741H3.122a.6.6 0 0 1-.44-.186.6.6 0 0 1-.185-.439V6.868a.6.6 0 0 1 .186-.44.6.6 0 0 1 .439-.185h4.897L6.175 4.4A.595.595 0 0 1 6 3.96c0-.175.058-.321.175-.439l.888-.887a.596.596 0 0 1 .439-.176c.176 0 .322.059.439.176l3.531 3.531.888.888a.595.595 0 0 1 .176.439.595.595 0 0 1-.176.439z"/></svg>