<svg width="34" height="29" viewBox="0 0 34 29" xmlns="http://www.w3.org/2000/svg"><path d="M10.692 29C23.522 29 30.54 17.842 30.54 8.166c0-.317 0-.633-.02-.947A14.605 14.605 0 0 0 34 3.43c-1.273.592-2.624.98-4.007 1.152 1.457-.915 2.547-2.354 3.067-4.05a13.585 13.585 0 0 1-4.43 1.777C26.469-.105 23.034-.696 20.25.868c-2.783 1.563-4.22 4.891-3.507 8.119C11.134 8.69 5.908 5.91 2.366 1.337c-1.851 3.345-.905 7.625 2.16 9.774a6.675 6.675 0 0 1-3.166-.917v.093c0 3.486 2.342 6.488 5.596 7.178a6.645 6.645 0 0 1-3.15.126c.914 2.983 3.533 5.026 6.518 5.085-2.47 2.038-5.522 3.144-8.663 3.14A13.536 13.536 0 0 1 0 25.711C3.19 27.86 6.902 29 10.692 28.994"/></svg>