<svg width="36" height="35" viewBox="0 0 36 35" xmlns="http://www.w3.org/2000/svg"><path d="M17.999 0C8.059 0 0 8.033 0 17.945c0 7.926 5.157 14.65 12.31 17.024.901.164 1.23-.39 1.23-.865 0-.426-.016-1.555-.025-3.052-5.007 1.084-6.063-2.405-6.063-2.405-.819-2.073-1.999-2.624-1.999-2.624-1.634-1.114.124-1.092.124-1.092 1.806.128 2.757 1.85 2.757 1.85 1.605 2.741 4.212 1.95 5.238 1.491.164-1.16.628-1.95 1.143-2.399-3.997-.453-8.199-1.992-8.199-8.868 0-1.959.702-3.56 1.853-4.815-.186-.454-.803-2.278.176-4.748 0 0 1.511-.483 4.95 1.84a17.291 17.291 0 0 1 4.506-.605c1.528.007 3.069.205 4.506.604 3.437-2.322 4.945-1.84 4.945-1.84.982 2.471.365 4.295.179 4.75 1.154 1.254 1.85 2.855 1.85 4.814 0 6.893-4.208 8.41-8.218 8.854.646.554 1.222 1.649 1.222 3.323 0 2.398-.022 4.333-.022 4.922 0 .48.324 1.038 1.238.863C30.846 32.59 36 25.87 36 17.945 36 8.033 27.94 0 17.999 0"/></svg>