<svg width="29" height="29" viewBox="0 0 29 29" xmlns="http://www.w3.org/2000/svg" xmlns:xlink="http://www.w3.org/1999/xlink"><defs><path id="a" d="M0 .01h28.99V29H0z"/></defs><g><g><mask id="b"><use xlink:href="#a"/></mask><path d="M14.495.01c-3.936 0-4.43.016-5.976.086C6.976.166 5.922.412 5 .77a7.105 7.105 0 0 0-2.567 1.672A7.106 7.106 0 0 0 .76 5.009C.403 5.932.158 6.985.087 8.53.017 10.073 0 10.567 0 14.504c0 3.936.017 4.43.087 5.976.07 1.543.316 2.597.674 3.519.37.953.866 1.761 1.672 2.567A7.106 7.106 0 0 0 5 28.24c.922.358 1.976.603 3.519.674 1.546.07 2.04.087 5.976.087 3.937 0 4.43-.017 5.977-.087 1.543-.07 2.596-.316 3.519-.674a7.105 7.105 0 0 0 2.567-1.672A7.105 7.105 0 0 0 28.23 24c.358-.922.603-1.976.674-3.519.07-1.546.087-2.04.087-5.976 0-3.937-.017-4.43-.087-5.977-.07-1.543-.316-2.596-.674-3.519a7.106 7.106 0 0 0-1.672-2.567A7.104 7.104 0 0 0 23.99.77c-.923-.358-1.976-.603-3.52-.674C18.927.026 18.433.01 14.496.01m0 2.612c3.87 0 4.33.015 5.858.084 1.413.065 2.18.301 2.691.5.677.263 1.16.577 1.667 1.084.507.507.821.99 1.084 1.667.199.51.435 1.278.5 2.691.07 1.529.084 1.987.084 5.858 0 3.87-.015 4.328-.084 5.857-.065 1.413-.301 2.18-.5 2.692a4.492 4.492 0 0 1-1.084 1.666 4.49 4.49 0 0 1-1.667 1.085c-.51.198-1.278.434-2.691.499-1.528.07-1.987.084-5.858.084-3.87 0-4.329-.015-5.857-.084-1.413-.065-2.18-.3-2.692-.5A4.491 4.491 0 0 1 4.28 24.72a4.492 4.492 0 0 1-1.085-1.666c-.198-.511-.434-1.279-.499-2.692-.07-1.529-.084-1.987-.084-5.857s.015-4.33.084-5.858c.065-1.413.3-2.18.5-2.691A4.491 4.491 0 0 1 4.28 4.289c.507-.507.99-.821 1.666-1.084.511-.199 1.279-.435 2.692-.5 1.529-.07 1.987-.084 5.857-.084" mask="url(#b)"/></g><path d="M14.5 19.368a4.868 4.868 0 1 1 0-9.737 4.868 4.868 0 0 1 0 9.737M14.5 7a7.5 7.5 0 1 0 0 15 7.5 7.5 0 0 0 0-15M24 6.5a1.5 1.5 0 1 1-3 0 1.5 1.5 0 0 1 3 0" /></g></svg>