<svg xmlns="http://www.w3.org/2000/svg" viewBox="0 0 172.2 172.2"><path d="M167.2 74l-69-69C91.5-1.7 80.7-1.7 74 5L5 74c-6.7 6.7-6.7 17.5 0 24.2l69 69c6.7 6.7 17.5 6.7 24.2 0l69-69c6.7-6.7 6.7-17.5 0-24.2zm-42.6 50.6l-5 5-33.5 33.5-24.6-24.6 10-10-23.8-3.9-3.9-23.8-10 10L9.1 86.1l33.5-33.5 5-5L86.1 9.1l24.6 24.6 3.3 20.6.5 3.3 23.8 3.9h.1l.1-.1L163.1 86l-38.5 38.6z"/><path d="M98.2 104.8c-10.3 0-18.7-8.4-18.7-18.7 0-10.3 8.4-18.7 18.7-18.7 4.7 0 9.1 1.8 12.4 4.7-1.2-2.1-2.7-4.1-4.5-5.9-11-11-28.8-11-39.8 0-11 11-11 28.8 0 39.8 11 11 28.8 11 39.8 0 1.8-1.8 3.3-3.8 4.5-5.9-3.4 2.9-7.7 4.7-12.4 4.7z"/><path d="M98.2 88.3c0-4.4 3.5-7.9 7.9-7.9s7.9 3.5 7.9 7.9-3.5 7.9-7.9 7.9-7.9-3.6-7.9-7.9z"/></svg>