<?xml version="1.0" encoding="UTF-8" standalone="no"?>
<!DOCTYPE svg PUBLIC "-//W3C//DTD SVG 1.1//EN" "http://www.w3.org/Graphics/SVG/1.1/DTD/svg11.dtd">
<svg width="100%" height="100%" viewBox="0 0 172 135" version="1.1" xmlns="http://www.w3.org/2000/svg" xmlns:xlink="http://www.w3.org/1999/xlink" xml:space="preserve" xmlns:serif="http://www.serif.com/" style="fill-rule:evenodd;clip-rule:evenodd;stroke-linejoin:round;stroke-miterlimit:2;">
    <g>
        <path d="M85.998,23.171C92.679,23.171 98.104,28.595 98.104,35.276C98.104,41.957 92.679,47.381 85.998,47.381C79.317,47.381 73.893,41.957 73.893,35.276C73.893,28.595 79.317,23.171 85.998,23.171ZM79.297,34.417C79.714,31.089 82.558,28.513 85.998,28.513C87.355,28.513 88.619,28.915 89.675,29.607C88.754,32.764 85.834,35.072 82.379,35.072C81.281,35.072 80.237,34.839 79.297,34.417Z"/>
    </g>
    <path d="M52.797,23.332C57.616,9.971 70.29,0.294 85.327,0.006C100.84,-0.288 114.216,9.495 119.2,23.332C123.904,15.832 131.381,7.002 139.075,1.792C139.075,1.792 186.519,45.345 167.502,119.606C167.502,119.606 149.912,111.371 139.064,92.681C139.064,92.681 134.402,108.179 86.034,135.942L86.034,135.86L86,135.84L85.963,135.86L85.963,135.942C37.598,108.179 32.933,92.681 32.933,92.681C22.085,111.371 4.498,119.606 4.498,119.606C-14.521,45.345 32.922,1.792 32.922,1.792C40.615,7.002 48.092,15.832 52.797,23.332ZM85.441,5.942C101.632,5.634 115.028,18.531 115.336,34.722C115.643,50.912 102.749,64.308 86.558,64.616C70.364,64.924 56.968,52.03 56.661,35.839C56.353,19.645 69.251,6.249 85.441,5.941L85.441,5.942Z"/>
</svg>
